<svg width="214" height="55" viewBox="0 0 214 55" fill="none" xmlns="http://www.w3.org/2000/svg">
<path d="M68.5525 45.5093V49.9429C68.5525 50.4637 68.6501 50.8966 68.8455 51.2417C69.1352 51.7625 69.6235 52.0229 70.3103 52.0229C71.1339 52.0229 71.6938 51.7414 71.99 51.1782C72.1495 50.8722 72.2292 50.4604 72.2292 49.9429V45.5093H73.2156V49.5376C73.2156 50.4198 73.0968 51.0985 72.8591 51.5737C72.4229 52.4396 71.5994 52.8726 70.3884 52.8726C69.1775 52.8726 68.3556 52.4396 67.9226 51.5737C67.685 51.0985 67.5662 50.4198 67.5662 49.5376V45.5093H68.5525ZM74.7244 45.5093H75.8718L79.4949 51.3198V45.5093H80.4177V52.6821H79.3289L75.6521 46.8765V52.6821H74.7244V45.5093ZM82.5173 45.5093L84.5779 51.6177L86.614 45.5093H87.7029L85.0857 52.6821H84.0554L81.4431 45.5093H82.5173ZM88.7136 45.5093H93.9431V46.3882H89.6609V48.5659H93.6208V49.396H89.6609V51.8276H94.0164V52.6821H88.7136V45.5093ZM95.2908 45.5093H96.2625V51.8276H99.8953V52.6821H95.2908V45.5093ZM101.077 45.5093H102.058V52.6821H101.077V45.5093ZM103.64 45.5093H104.788L108.411 51.3198V45.5093H109.334V52.6821H108.245L104.568 46.8765V52.6821H103.64V45.5093ZM113.968 45.3237C114.641 45.3237 115.224 45.4539 115.716 45.7144C116.428 46.0887 116.865 46.7446 117.024 47.6821H116.062C115.945 47.158 115.703 46.7772 115.335 46.5396C114.967 46.2987 114.503 46.1782 113.943 46.1782C113.279 46.1782 112.719 46.4272 112.263 46.9253C111.811 47.4233 111.585 48.1655 111.585 49.1519C111.585 50.0047 111.772 50.6997 112.146 51.2368C112.521 51.7707 113.131 52.0376 113.977 52.0376C114.625 52.0376 115.161 51.8504 115.584 51.4761C116.01 51.0985 116.228 50.4897 116.238 49.6499H113.992V48.8442H117.141V52.6821H116.516L116.282 51.7593C115.953 52.1206 115.662 52.3713 115.408 52.5112C114.982 52.7521 114.44 52.8726 113.782 52.8726C112.932 52.8726 112.202 52.5975 111.59 52.0474C110.922 51.3573 110.589 50.41 110.589 49.2056C110.589 48.0044 110.914 47.049 111.565 46.3394C112.184 45.6623 112.984 45.3237 113.968 45.3237ZM124.187 51.8521C124.516 51.8521 124.786 51.8179 124.998 51.7495C125.375 51.6226 125.685 51.3784 125.926 51.0171C126.118 50.7274 126.256 50.3563 126.341 49.9038C126.389 49.6336 126.414 49.383 126.414 49.1519C126.414 48.2632 126.236 47.5731 125.882 47.0815C125.53 46.59 124.962 46.3442 124.177 46.3442H122.454V51.8521H124.187ZM121.477 45.5093H124.383C125.369 45.5093 126.134 45.8592 126.677 46.5591C127.163 47.1906 127.405 47.9995 127.405 48.9858C127.405 49.7476 127.262 50.436 126.975 51.0513C126.471 52.1385 125.603 52.6821 124.373 52.6821H121.477V45.5093ZM132.342 49.7427L131.253 46.5737L130.095 49.7427H132.342ZM130.745 45.5093H131.844L134.446 52.6821H133.382L132.654 50.5337H129.817L129.041 52.6821H128.045L130.745 45.5093ZM139.807 45.5093V46.3638H137.39V52.6821H136.404V46.3638H133.987V45.5093H139.807ZM143.64 49.7427L142.552 46.5737L141.394 49.7427H143.64ZM142.044 45.5093H143.142L145.745 52.6821H144.68L143.953 50.5337H141.116L140.34 52.6821H139.344L142.044 45.5093Z" fill="#F5F5F7" fill-opacity="0.78"/>
<path d="M19.019 26.853L26.676 7.96402C27.0243 7.13912 27.3293 6.29664 27.59 5.44002C27.7529 4.90337 27.8407 4.34675 27.851 3.78602C27.8838 3.47214 27.8352 3.15512 27.71 2.86545C27.5847 2.57577 27.3871 2.3232 27.136 2.13202C26.3014 1.73968 25.3778 1.57512 24.459 1.65502V0.00102027H35.034V1.65502C34.4525 1.72436 33.8777 1.84075 33.315 2.00302C32.8635 2.1348 32.4371 2.34059 32.053 2.61202C31.6736 2.89141 31.3491 3.23859 31.096 3.63602C30.7837 4.12652 30.5143 4.64311 30.291 5.18002L18.496 33.947H16.973L5.745 6.83302C5.41552 6.05883 5.045 5.30275 4.635 4.56802C4.31651 3.98803 3.91191 3.45969 3.435 3.00102C3.00812 2.59997 2.50475 2.28911 1.955 2.08702C1.32402 1.86968 0.666236 1.73981 0 1.70102V0.00102027H14.188V1.70102C13.5263 1.69224 12.8647 1.72866 12.208 1.81002C11.7907 1.8546 11.3844 1.9724 11.008 2.15802C10.7495 2.28686 10.5368 2.49215 10.399 2.74602C10.28 2.98968 10.2201 3.25791 10.224 3.52902C10.235 4.00782 10.3082 4.48315 10.442 4.94302C10.6758 5.73424 10.9519 6.51236 11.269 7.27402L19.019 26.853ZM51.155 6.35302C53.109 6.33761 55.0471 6.70485 56.86 7.43402C58.5689 8.1167 60.1306 9.12161 61.46 10.394C62.7627 11.6514 63.804 13.1538 64.524 14.815C65.2751 16.5505 65.6545 18.424 65.638 20.315C65.6496 22.1403 65.2633 23.9462 64.506 25.607C63.7708 27.2285 62.7239 28.6895 61.425 29.907C60.0862 31.15 58.5258 32.1303 56.825 32.797C53.174 34.2124 49.126 34.2124 45.475 32.797C43.7742 32.1303 42.2138 31.15 40.875 29.907C39.5761 28.6895 38.5292 27.2285 37.794 25.607C37.0367 23.9462 36.6504 22.1403 36.662 20.315C36.6455 18.424 37.0249 16.5505 37.776 14.815C38.4962 13.1534 39.5378 11.6506 40.841 10.393C42.1704 9.12061 43.7321 8.1157 45.441 7.43302C47.2559 6.70376 49.1961 6.33719 51.152 6.35402L51.155 6.35302ZM51.155 31.943C52.5717 31.9665 53.9776 31.694 55.283 31.143C56.4853 30.6197 57.5551 29.8338 58.414 28.843C59.3201 27.7794 60.0005 26.5427 60.414 25.208C60.8977 23.6588 61.1339 22.0429 61.114 20.42C61.1346 18.7174 60.8987 17.0213 60.414 15.389C60.0043 13.9971 59.3304 12.6971 58.429 11.56C57.5868 10.5156 56.5141 9.68045 55.295 9.12002C53.9865 8.55761 52.5772 8.26756 51.153 8.26756C49.7288 8.26756 48.3195 8.55761 47.011 9.12002C45.7916 9.68032 44.7185 10.5155 43.876 11.56C42.9745 12.6974 42.3006 13.9977 41.891 15.39C41.4063 17.0223 41.1703 18.7184 41.191 20.421C41.1712 22.0436 41.4074 23.6591 41.891 25.208C42.3038 26.5398 42.9787 27.7757 43.876 28.843C44.731 29.8393 45.8032 30.6262 47.01 31.143C48.321 31.6926 49.7316 31.9649 51.153 31.943H51.155ZM90.498 29.715C90.9729 30.4608 91.6255 31.0771 92.3973 31.5085C93.1691 31.94 94.0359 32.1731 94.92 32.187V33.51H83.047V32.189C83.7738 32.2388 84.5029 32.1366 85.188 31.889C85.354 31.8248 85.4972 31.7128 85.5995 31.5672C85.7019 31.4216 85.7588 31.2489 85.763 31.071C85.762 30.9031 85.7446 30.7356 85.711 30.571C85.6575 30.3468 85.5755 30.1304 85.467 29.927C85.3397 29.6717 85.16 29.3584 84.928 28.987C84.696 28.6157 84.3827 28.128 83.988 27.524L80.016 21.601L77.022 25.361C76.3027 26.2664 75.699 27.044 75.211 27.694C74.723 28.344 74.3343 28.9004 74.045 29.363C73.8074 29.7297 73.5978 30.1138 73.418 30.512C73.3051 30.7525 73.2403 31.0127 73.227 31.278C73.2267 31.4476 73.2857 31.6119 73.3938 31.7425C73.5019 31.8731 73.6524 31.9617 73.819 31.993C74.55 32.1545 75.2992 32.2187 76.047 32.184V33.507H66.368V32.187C66.878 32.1925 67.3866 32.1341 67.882 32.013C68.3545 31.8882 68.806 31.6945 69.222 31.438C69.7102 31.1333 70.1601 30.771 70.562 30.359C71.0868 29.8247 71.5809 29.2611 72.042 28.671L78.866 19.971L71.801 10.323C71.3054 9.58603 70.636 8.98228 69.852 8.56502C69.0471 8.18687 68.165 8.00228 67.276 8.02602V6.70102H78.837V8.02402C77.327 8.02402 76.572 8.47669 76.572 9.38202C76.6742 10.2248 77.0114 11.0218 77.545 11.682L81.345 17.322L84.753 13.001C85.2695 12.387 85.724 11.7235 86.11 11.02C86.3501 10.5689 86.4813 10.0679 86.493 9.55702C86.518 9.32334 86.4774 9.08732 86.3759 8.87538C86.2743 8.66345 86.1158 8.48396 85.918 8.35702C85.2746 8.08764 84.5766 7.97423 83.881 8.02602V6.70102H93.46V8.02402C92.9756 8.01669 92.4917 8.05654 92.015 8.14302C91.5963 8.2284 91.1995 8.39856 90.849 8.64302C90.4019 8.96785 89.9932 9.3426 89.631 9.76002C89.1897 10.2474 88.6563 10.897 88.031 11.709L82.49 18.854L90.498 29.715ZM96.434 33.515V31.858C97.3312 31.8488 98.2263 31.7692 99.111 31.62C99.701 31.5331 100.253 31.2759 100.699 30.88C101.098 30.4762 101.363 29.9601 101.46 29.401C101.609 28.5763 101.676 27.7389 101.66 26.901V6.61602C101.673 5.79363 101.621 4.9715 101.507 4.15702C101.441 3.61776 101.231 3.10633 100.898 2.67702C100.55 2.28898 100.081 2.02852 99.568 1.93702C98.8213 1.78491 98.0641 1.6903 97.303 1.65402V0.00102027H112.579C115.057 -0.0242151 117.517 0.418887 119.831 1.30702C121.964 2.12286 123.916 3.35013 125.576 4.91902C127.193 6.46857 128.473 8.33472 129.337 10.401C130.251 12.5925 130.71 14.9468 130.686 17.321C130.712 19.5672 130.283 21.7953 129.424 23.871C128.618 25.808 127.409 27.5512 125.877 28.985C124.293 30.4436 122.437 31.5749 120.415 32.314C118.185 33.1328 115.825 33.5394 113.45 33.514L96.434 33.515ZM106.966 2.13702C106.866 2.1231 106.763 2.13265 106.667 2.16492C106.571 2.19719 106.484 2.25131 106.412 2.32302C106.34 2.39471 106.286 2.48204 106.254 2.57816C106.222 2.67429 106.212 2.77658 106.226 2.87702V26.418C106.226 29.726 108.388 31.38 112.711 31.38C116.684 31.38 119.731 30.1977 121.85 27.833C123.969 25.4684 125.028 21.994 125.027 17.41C125.059 15.231 124.765 13.0594 124.156 10.967C123.65 9.2204 122.8 7.59252 121.656 6.17902C120.59 4.89116 119.242 3.86488 117.717 3.17902C116.071 2.46033 114.29 2.10394 112.494 2.13402L106.966 2.13702ZM150.243 23.801H140.943C140.548 24.7544 140.212 25.5957 139.933 26.325C139.654 27.0544 139.428 27.6877 139.254 28.225C139.104 28.6696 138.982 29.1231 138.889 29.583C138.829 29.8811 138.795 30.184 138.789 30.488C138.76 30.748 138.803 31.0111 138.913 31.2481C139.024 31.4852 139.199 31.6869 139.417 31.831C140.073 32.1218 140.79 32.2471 141.506 32.196V33.519H133.043V32.191C133.508 32.1357 133.969 32.0427 134.419 31.913C134.78 31.8074 135.122 31.6425 135.429 31.425C135.733 31.2019 135.992 30.9246 136.195 30.607C136.445 30.2144 136.66 29.8008 136.839 29.371L145.891 6.70102H147.391L155.291 26.337C155.824 27.6364 156.289 28.675 156.684 29.453C156.985 30.089 157.371 30.6805 157.833 31.211C158.153 31.5736 158.569 31.839 159.033 31.977C159.54 32.1022 160.061 32.1607 160.583 32.151V33.511H149.233V32.153C150.095 32.2114 150.96 32.093 151.775 31.805C151.994 31.7063 152.178 31.5437 152.303 31.3387C152.427 31.1337 152.488 30.8958 152.475 30.656C152.476 30.4409 152.464 30.2258 152.44 30.012C152.414 29.795 152.374 29.5799 152.321 29.368C152.263 29.136 152.182 28.875 152.077 28.585C151.972 28.295 151.839 27.9527 151.677 27.558L150.243 23.801ZM141.643 22.06H149.581L145.717 11.786L141.643 22.06ZM162.15 25.329H163.438C163.581 26.3151 163.894 27.269 164.361 28.149C164.792 28.9575 165.37 29.678 166.067 30.273C166.767 30.8618 167.57 31.3161 168.435 31.613C169.37 31.9332 170.353 32.0921 171.342 32.083C172.801 32.1638 174.241 31.7326 175.416 30.864C175.907 30.468 176.298 29.9626 176.559 29.3881C176.819 28.8137 176.942 28.1862 176.916 27.556C176.931 26.991 176.823 26.4294 176.601 25.9098C176.379 25.3901 176.047 24.9246 175.628 24.545C175.065 24.0198 174.437 23.5682 173.76 23.201C172.805 22.6727 171.823 22.1953 170.818 21.771C169.575 21.2427 168.365 20.6379 167.197 19.96C166.337 19.4701 165.552 18.8603 164.864 18.149C164.317 17.5762 163.896 16.8948 163.628 16.149C163.373 15.3681 163.25 14.5503 163.263 13.729C163.253 12.7136 163.448 11.7067 163.838 10.769C164.209 9.88178 164.76 9.08146 165.457 8.41902C166.17 7.74733 167.01 7.22628 167.929 6.88702C168.932 6.51853 169.994 6.33588 171.063 6.34802C172.036 6.33999 173.003 6.50524 173.918 6.83602C174.89 7.21245 175.795 7.74143 176.6 8.40302L177.505 9.01202H178.305L178.688 13.764H177.397C177.008 12.1479 176.169 10.675 174.977 9.51602C173.926 8.58893 172.564 8.09161 171.163 8.12302C169.949 8.05851 168.751 8.42902 167.786 9.16802C167.375 9.51016 167.048 9.94259 166.83 10.4317C166.613 10.9208 166.512 11.4534 166.534 11.988C166.527 12.506 166.621 13.0204 166.812 13.502C167.022 13.9895 167.33 14.4284 167.717 14.791C168.217 15.2594 168.768 15.6697 169.36 16.014C170.166 16.4891 171.001 16.9135 171.86 17.285C173.325 17.9243 174.754 18.6399 176.144 19.429C177.127 19.9768 178.039 20.6435 178.86 21.414C179.482 21.9987 179.97 22.7114 180.29 23.503C180.578 24.289 180.719 25.1211 180.707 25.958C180.721 27.0471 180.491 28.1255 180.033 29.1138C179.575 30.102 178.901 30.9749 178.061 31.668C177.174 32.3922 176.158 32.9415 175.067 33.287C173.829 33.682 172.536 33.8761 171.237 33.862C170.024 33.8797 168.818 33.6914 167.668 33.305C166.496 32.8661 165.408 32.2303 164.45 31.425L163.475 30.955H162.669L162.15 25.329ZM209.396 27.975C209.384 28.6913 209.431 29.4073 209.535 30.116C209.591 30.5766 209.778 31.0114 210.075 31.368C210.387 31.6829 210.788 31.8953 211.224 31.977C211.871 32.1097 212.53 32.1797 213.191 32.186V33.509H201.911V32.187C202.572 32.1807 203.231 32.1107 203.878 31.978C204.315 31.8942 204.719 31.689 205.044 31.386C205.347 31.0578 205.541 30.6445 205.601 30.202C205.705 29.5456 205.751 28.8815 205.74 28.217V20.664H191.64V27.975C191.628 28.6913 191.675 29.4073 191.779 30.116C191.835 30.5766 192.022 31.0114 192.319 31.368C192.631 31.6829 193.032 31.8953 193.468 31.977C194.115 32.1097 194.774 32.1797 195.435 32.186V33.509H184.154V32.187C184.815 32.1807 185.474 32.1107 186.121 31.978C186.558 31.8941 186.962 31.689 187.287 31.386C187.59 31.0578 187.784 30.6445 187.844 30.202C187.948 29.5456 187.994 28.8815 187.983 28.217V11.994C187.994 11.3363 187.954 10.6786 187.864 10.027C187.811 9.59553 187.643 9.18638 187.376 8.84302C187.098 8.53296 186.724 8.32462 186.314 8.25102C185.717 8.1295 185.112 8.05395 184.503 8.02502V6.70102H195.088V8.02402C194.485 8.03019 193.884 8.10024 193.295 8.23302C192.887 8.32161 192.52 8.54195 192.25 8.86002C191.98 9.22704 191.811 9.65896 191.762 10.112C191.671 10.8162 191.631 11.5261 191.643 12.236V18.923H205.743V11.994C205.754 11.3363 205.714 10.6786 205.624 10.027C205.571 9.59553 205.403 9.18638 205.136 8.84302C204.858 8.53296 204.484 8.32462 204.074 8.25102C203.477 8.1295 202.872 8.05394 202.263 8.02502V6.70102H212.85V8.02402C212.247 8.03019 211.646 8.10024 211.057 8.23302C210.649 8.32161 210.282 8.54195 210.012 8.86002C209.742 9.22714 209.574 9.65906 209.525 10.112C209.434 10.8162 209.394 11.5261 209.406 12.236L209.396 27.975Z" fill="#F5F5F7" fill-opacity="0.78"/>
<path d="M4.38599 48.96H43.125" stroke="#9B7D22"/>
<path d="M170.664 49.5559H209.403" stroke="#9B7D22"/>
</svg>
