<svg width="248" height="248" viewBox="0 0 248 248" fill="none" xmlns="http://www.w3.org/2000/svg">
<path d="M85.5525 142.509V146.943C85.5525 147.464 85.6501 147.897 85.8455 148.242C86.1352 148.763 86.6235 149.023 87.3103 149.023C88.1339 149.023 88.6938 148.741 88.99 148.178C89.1495 147.872 89.2292 147.46 89.2292 146.943V142.509H90.2156V146.538C90.2156 147.42 90.0968 148.098 89.8591 148.574C89.4229 149.44 88.5994 149.873 87.3884 149.873C86.1775 149.873 85.3556 149.44 84.9226 148.574C84.685 148.098 84.5662 147.42 84.5662 146.538V142.509H85.5525ZM91.7244 142.509H92.8718L96.4949 148.32V142.509H97.4177V149.682H96.3289L92.6521 143.876V149.682H91.7244V142.509ZM99.5173 142.509L101.578 148.618L103.614 142.509H104.703L102.086 149.682H101.055L98.4431 142.509H99.5173ZM105.714 142.509H110.943V143.388H106.661V145.566H110.621V146.396H106.661V148.828H111.016V149.682H105.714V142.509ZM112.291 142.509H113.262V148.828H116.895V149.682H112.291V142.509ZM118.077 142.509H119.058V149.682H118.077V142.509ZM120.64 142.509H121.788L125.411 148.32V142.509H126.334V149.682H125.245L121.568 143.876V149.682H120.64V142.509ZM130.968 142.324C131.641 142.324 132.224 142.454 132.716 142.714C133.428 143.089 133.865 143.745 134.024 144.682H133.062C132.945 144.158 132.703 143.777 132.335 143.54C131.967 143.299 131.503 143.178 130.943 143.178C130.279 143.178 129.719 143.427 129.263 143.925C128.811 144.423 128.585 145.166 128.585 146.152C128.585 147.005 128.772 147.7 129.146 148.237C129.521 148.771 130.131 149.038 130.977 149.038C131.625 149.038 132.161 148.85 132.584 148.476C133.01 148.098 133.228 147.49 133.238 146.65H130.992V145.844H134.141V149.682H133.516L133.282 148.759C132.953 149.121 132.662 149.371 132.408 149.511C131.982 149.752 131.44 149.873 130.782 149.873C129.932 149.873 129.202 149.597 128.59 149.047C127.922 148.357 127.589 147.41 127.589 146.206C127.589 145.004 127.914 144.049 128.565 143.339C129.184 142.662 129.984 142.324 130.968 142.324ZM141.187 148.852C141.516 148.852 141.786 148.818 141.998 148.75C142.375 148.623 142.685 148.378 142.926 148.017C143.118 147.727 143.256 147.356 143.341 146.904C143.389 146.634 143.414 146.383 143.414 146.152C143.414 145.263 143.236 144.573 142.882 144.082C142.53 143.59 141.962 143.344 141.177 143.344H139.454V148.852H141.187ZM138.477 142.509H141.383C142.369 142.509 143.134 142.859 143.677 143.559C144.163 144.191 144.405 145 144.405 145.986C144.405 146.748 144.262 147.436 143.975 148.051C143.471 149.139 142.603 149.682 141.373 149.682H138.477V142.509ZM149.342 146.743L148.253 143.574L147.095 146.743H149.342ZM147.745 142.509H148.844L151.446 149.682H150.382L149.654 147.534H146.817L146.041 149.682H145.045L147.745 142.509ZM156.807 142.509V143.364H154.39V149.682H153.404V143.364H150.987V142.509H156.807ZM160.64 146.743L159.552 143.574L158.394 146.743H160.64ZM159.044 142.509H160.142L162.745 149.682H161.68L160.953 147.534H158.116L157.34 149.682H156.344L159.044 142.509Z" fill="#F5F5F7" fill-opacity="0.78"/>
<path d="M36.019 123.853L43.676 104.964C44.0243 104.139 44.3293 103.297 44.59 102.44C44.7529 101.903 44.8407 101.347 44.851 100.786C44.8838 100.472 44.8352 100.155 44.71 99.8654C44.5847 99.5758 44.3871 99.3232 44.136 99.132C43.3014 98.7397 42.3778 98.5751 41.459 98.655V97.001H52.034V98.655C51.4525 98.7244 50.8777 98.8407 50.315 99.003C49.8635 99.1348 49.4371 99.3406 49.053 99.612C48.6736 99.8914 48.3491 100.239 48.096 100.636C47.7837 101.127 47.5143 101.643 47.291 102.18L35.496 130.947H33.973L22.745 103.833C22.4155 103.059 22.045 102.303 21.635 101.568C21.3165 100.988 20.9119 100.46 20.435 100.001C20.0081 99.6 19.5048 99.2891 18.955 99.087C18.324 98.8697 17.6662 98.7398 17 98.701V97.001H31.188V98.701C30.5263 98.6922 29.8647 98.7287 29.208 98.81C28.7907 98.8546 28.3844 98.9724 28.008 99.158C27.7495 99.2869 27.5368 99.4922 27.399 99.746C27.28 99.9897 27.2201 100.258 27.224 100.529C27.235 101.008 27.3082 101.483 27.442 101.943C27.6758 102.734 27.9519 103.512 28.269 104.274L36.019 123.853ZM68.155 103.353C70.109 103.338 72.0471 103.705 73.86 104.434C75.5689 105.117 77.1306 106.122 78.46 107.394C79.7627 108.651 80.804 110.154 81.524 111.815C82.2751 113.551 82.6545 115.424 82.638 117.315C82.6496 119.14 82.2633 120.946 81.506 122.607C80.7708 124.228 79.7239 125.69 78.425 126.907C77.0862 128.15 75.5258 129.13 73.825 129.797C70.174 131.212 66.126 131.212 62.475 129.797C60.7742 129.13 59.2138 128.15 57.875 126.907C56.5761 125.69 55.5292 124.228 54.794 122.607C54.0367 120.946 53.6504 119.14 53.662 117.315C53.6455 115.424 54.0249 113.551 54.776 111.815C55.4962 110.153 56.5378 108.651 57.841 107.393C59.1704 106.121 60.7321 105.116 62.441 104.433C64.2559 103.704 66.1961 103.337 68.152 103.354L68.155 103.353ZM68.155 128.943C69.5717 128.966 70.9776 128.694 72.283 128.143C73.4853 127.62 74.5551 126.834 75.414 125.843C76.3201 124.779 77.0005 123.543 77.414 122.208C77.8977 120.659 78.1339 119.043 78.114 117.42C78.1346 115.717 77.8987 114.021 77.414 112.389C77.0043 110.997 76.3304 109.697 75.429 108.56C74.5868 107.516 73.5141 106.68 72.295 106.12C70.9865 105.558 69.5772 105.268 68.153 105.268C66.7288 105.268 65.3195 105.558 64.011 106.12C62.7916 106.68 61.7185 107.515 60.876 108.56C59.9745 109.697 59.3006 110.998 58.891 112.39C58.4063 114.022 58.1703 115.718 58.191 117.421C58.1712 119.044 58.4074 120.659 58.891 122.208C59.3038 123.54 59.9787 124.776 60.876 125.843C61.731 126.839 62.8032 127.626 64.01 128.143C65.321 128.693 66.7316 128.965 68.153 128.943H68.155ZM107.498 126.715C107.973 127.461 108.626 128.077 109.397 128.509C110.169 128.94 111.036 129.173 111.92 129.187V130.51H100.047V129.189C100.774 129.239 101.503 129.137 102.188 128.889C102.354 128.825 102.497 128.713 102.6 128.567C102.702 128.422 102.759 128.249 102.763 128.071C102.762 127.903 102.745 127.736 102.711 127.571C102.657 127.347 102.575 127.13 102.467 126.927C102.34 126.672 102.16 126.358 101.928 125.987C101.696 125.616 101.383 125.128 100.988 124.524L97.016 118.601L94.022 122.361C93.3027 123.266 92.699 124.044 92.211 124.694C91.723 125.344 91.3343 125.9 91.045 126.363C90.8074 126.73 90.5978 127.114 90.418 127.512C90.3051 127.753 90.2403 128.013 90.227 128.278C90.2267 128.448 90.2857 128.612 90.3938 128.742C90.5019 128.873 90.6524 128.962 90.819 128.993C91.55 129.155 92.2992 129.219 93.047 129.184V130.507H83.368V129.187C83.878 129.193 84.3866 129.134 84.882 129.013C85.3545 128.888 85.806 128.694 86.222 128.438C86.7102 128.133 87.1601 127.771 87.562 127.359C88.0868 126.825 88.5809 126.261 89.042 125.671L95.866 116.971L88.801 107.323C88.3054 106.586 87.636 105.982 86.852 105.565C86.0471 105.187 85.165 105.002 84.276 105.026V103.701H95.837V105.024C94.327 105.024 93.572 105.477 93.572 106.382C93.6742 107.225 94.0114 108.022 94.545 108.682L98.345 114.322L101.753 110.001C102.27 109.387 102.724 108.723 103.11 108.02C103.35 107.569 103.481 107.068 103.493 106.557C103.518 106.323 103.477 106.087 103.376 105.875C103.274 105.663 103.116 105.484 102.918 105.357C102.275 105.088 101.577 104.974 100.881 105.026V103.701H110.46V105.024C109.976 105.017 109.492 105.057 109.015 105.143C108.596 105.228 108.199 105.399 107.849 105.643C107.402 105.968 106.993 106.343 106.631 106.76C106.19 107.247 105.656 107.897 105.031 108.709L99.49 115.854L107.498 126.715ZM113.434 130.515V128.858C114.331 128.849 115.226 128.769 116.111 128.62C116.701 128.533 117.253 128.276 117.699 127.88C118.098 127.476 118.363 126.96 118.46 126.401C118.609 125.576 118.676 124.739 118.66 123.901V103.616C118.673 102.794 118.621 101.972 118.507 101.157C118.441 100.618 118.231 100.106 117.898 99.677C117.55 99.289 117.081 99.0285 116.568 98.937C115.821 98.7849 115.064 98.6903 114.303 98.654V97.001H129.579C132.057 96.9758 134.517 97.4189 136.831 98.307C138.964 99.1229 140.916 100.35 142.576 101.919C144.193 103.469 145.473 105.335 146.337 107.401C147.251 109.592 147.71 111.947 147.686 114.321C147.712 116.567 147.283 118.795 146.424 120.871C145.618 122.808 144.409 124.551 142.877 125.985C141.293 127.444 139.437 128.575 137.415 129.314C135.185 130.133 132.825 130.539 130.45 130.514L113.434 130.515ZM123.966 99.137C123.866 99.1231 123.763 99.1326 123.667 99.1649C123.571 99.1972 123.484 99.2513 123.412 99.323C123.34 99.3947 123.286 99.482 123.254 99.5782C123.222 99.6743 123.212 99.7766 123.226 99.877V123.418C123.226 126.726 125.388 128.38 129.711 128.38C133.684 128.38 136.731 127.198 138.85 124.833C140.969 122.468 142.028 118.994 142.027 114.41C142.059 112.231 141.765 110.059 141.156 107.967C140.65 106.22 139.8 104.593 138.656 103.179C137.59 101.891 136.242 100.865 134.717 100.179C133.071 99.4603 131.29 99.1039 129.494 99.134L123.966 99.137ZM167.243 120.801H157.943C157.548 121.754 157.212 122.596 156.933 123.325C156.654 124.054 156.428 124.688 156.254 125.225C156.104 125.67 155.982 126.123 155.889 126.583C155.829 126.881 155.795 127.184 155.789 127.488C155.76 127.748 155.803 128.011 155.913 128.248C156.024 128.485 156.199 128.687 156.417 128.831C157.073 129.122 157.79 129.247 158.506 129.196V130.519H150.043V129.191C150.508 129.136 150.969 129.043 151.419 128.913C151.78 128.807 152.122 128.642 152.429 128.425C152.733 128.202 152.992 127.925 153.195 127.607C153.445 127.214 153.66 126.801 153.839 126.371L162.891 103.701H164.391L172.291 123.337C172.824 124.636 173.289 125.675 173.684 126.453C173.985 127.089 174.371 127.681 174.833 128.211C175.153 128.574 175.569 128.839 176.033 128.977C176.54 129.102 177.061 129.161 177.583 129.151V130.511H166.233V129.153C167.095 129.211 167.96 129.093 168.775 128.805C168.994 128.706 169.178 128.544 169.303 128.339C169.427 128.134 169.488 127.896 169.475 127.656C169.476 127.441 169.464 127.226 169.44 127.012C169.414 126.795 169.374 126.58 169.321 126.368C169.263 126.136 169.182 125.875 169.077 125.585C168.972 125.295 168.839 124.953 168.677 124.558L167.243 120.801ZM158.643 119.06H166.581L162.717 108.786L158.643 119.06ZM179.15 122.329H180.438C180.581 123.315 180.894 124.269 181.361 125.149C181.792 125.958 182.37 126.678 183.067 127.273C183.767 127.862 184.57 128.316 185.435 128.613C186.37 128.933 187.353 129.092 188.342 129.083C189.801 129.164 191.241 128.733 192.416 127.864C192.907 127.468 193.298 126.963 193.559 126.388C193.819 125.814 193.942 125.186 193.916 124.556C193.931 123.991 193.823 123.429 193.601 122.91C193.379 122.39 193.047 121.925 192.628 121.545C192.065 121.02 191.437 120.568 190.76 120.201C189.805 119.673 188.823 119.195 187.818 118.771C186.575 118.243 185.365 117.638 184.197 116.96C183.337 116.47 182.552 115.86 181.864 115.149C181.317 114.576 180.896 113.895 180.628 113.149C180.373 112.368 180.25 111.55 180.263 110.729C180.253 109.714 180.448 108.707 180.838 107.769C181.209 106.882 181.76 106.081 182.457 105.419C183.17 104.747 184.01 104.226 184.929 103.887C185.932 103.519 186.994 103.336 188.063 103.348C189.036 103.34 190.003 103.505 190.918 103.836C191.89 104.212 192.795 104.741 193.6 105.403L194.505 106.012H195.305L195.688 110.764H194.397C194.008 109.148 193.169 107.675 191.977 106.516C190.926 105.589 189.564 105.092 188.163 105.123C186.949 105.059 185.751 105.429 184.786 106.168C184.375 106.51 184.048 106.943 183.83 107.432C183.613 107.921 183.512 108.453 183.534 108.988C183.527 109.506 183.621 110.02 183.812 110.502C184.022 110.99 184.33 111.428 184.717 111.791C185.217 112.259 185.768 112.67 186.36 113.014C187.166 113.489 188.001 113.914 188.86 114.285C190.325 114.924 191.754 115.64 193.144 116.429C194.127 116.977 195.039 117.643 195.86 118.414C196.482 118.999 196.97 119.711 197.29 120.503C197.578 121.289 197.719 122.121 197.707 122.958C197.721 124.047 197.491 125.126 197.033 126.114C196.575 127.102 195.901 127.975 195.061 128.668C194.174 129.392 193.158 129.942 192.067 130.287C190.829 130.682 189.536 130.876 188.237 130.862C187.024 130.88 185.818 130.691 184.668 130.305C183.496 129.866 182.408 129.23 181.45 128.425L180.475 127.955H179.669L179.15 122.329ZM226.396 124.975C226.384 125.691 226.431 126.407 226.535 127.116C226.591 127.577 226.778 128.011 227.075 128.368C227.387 128.683 227.788 128.895 228.224 128.977C228.871 129.11 229.53 129.18 230.191 129.186V130.509H218.911V129.187C219.572 129.181 220.231 129.111 220.878 128.978C221.315 128.894 221.719 128.689 222.044 128.386C222.347 128.058 222.541 127.644 222.601 127.202C222.705 126.546 222.751 125.881 222.74 125.217V117.664H208.64V124.975C208.628 125.691 208.675 126.407 208.779 127.116C208.835 127.577 209.022 128.011 209.319 128.368C209.631 128.683 210.032 128.895 210.468 128.977C211.115 129.11 211.774 129.18 212.435 129.186V130.509H201.154V129.187C201.815 129.181 202.474 129.111 203.121 128.978C203.558 128.894 203.962 128.689 204.287 128.386C204.59 128.058 204.784 127.644 204.844 127.202C204.948 126.546 204.994 125.881 204.983 125.217V108.994C204.994 108.336 204.954 107.679 204.864 107.027C204.811 106.596 204.643 106.186 204.376 105.843C204.098 105.533 203.724 105.325 203.314 105.251C202.717 105.13 202.112 105.054 201.503 105.025V103.701H212.088V105.024C211.485 105.03 210.884 105.1 210.295 105.233C209.887 105.322 209.52 105.542 209.25 105.86C208.98 106.227 208.811 106.659 208.762 107.112C208.671 107.816 208.631 108.526 208.643 109.236V115.923H222.743V108.994C222.754 108.336 222.714 107.679 222.624 107.027C222.571 106.596 222.403 106.186 222.136 105.843C221.858 105.533 221.484 105.325 221.074 105.251C220.477 105.129 219.872 105.054 219.263 105.025V103.701H229.85V105.024C229.247 105.03 228.646 105.1 228.057 105.233C227.649 105.322 227.282 105.542 227.012 105.86C226.742 106.227 226.574 106.659 226.525 107.112C226.434 107.816 226.394 108.526 226.406 109.236L226.396 124.975Z" fill="#F5F5F7" fill-opacity="0.78"/>
<path d="M21.386 145.96H60.125" stroke="#9B7D22"/>
<path d="M187.664 146.556H226.403" stroke="#9B7D22"/>
</svg>
